{
 "cells": [
  {
   "cell_type": "code",
   "execution_count": 3,
   "metadata": {},
   "outputs": [],
   "source": [
    "name = \"Villains Milk\""
   ]
  },
  {
   "cell_type": "code",
   "execution_count": 3,
   "metadata": {},
   "outputs": [
    {
     "name": "stderr",
     "output_type": "stream",
     "text": [
      "ffmpeg version 7.1 Copyright (c) 2000-2024 the FFmpeg developers\n",
      "  built with Apple clang version 16.0.0 (clang-1600.0.26.4)\n",
      "  configuration: --prefix=/opt/homebrew/Cellar/ffmpeg/7.1_3 --enable-shared --enable-pthreads --enable-version3 --cc=clang --host-cflags= --host-ldflags='-Wl,-ld_classic' --enable-ffplay --enable-gnutls --enable-gpl --enable-libaom --enable-libaribb24 --enable-libbluray --enable-libdav1d --enable-libharfbuzz --enable-libjxl --enable-libmp3lame --enable-libopus --enable-librav1e --enable-librist --enable-librubberband --enable-libsnappy --enable-libsrt --enable-libssh --enable-libsvtav1 --enable-libtesseract --enable-libtheora --enable-libvidstab --enable-libvmaf --enable-libvorbis --enable-libvpx --enable-libwebp --enable-libx264 --enable-libx265 --enable-libxml2 --enable-libxvid --enable-lzma --enable-libfontconfig --enable-libfreetype --enable-frei0r --enable-libass --enable-libopencore-amrnb --enable-libopencore-amrwb --enable-libopenjpeg --enable-libspeex --enable-libsoxr --enable-libzmq --enable-libzimg --disable-libjack --disable-indev=jack --enable-videotoolbox --enable-audiotoolbox --enable-neon\n",
      "  libavutil      59. 39.100 / 59. 39.100\n",
      "  libavcodec     61. 19.100 / 61. 19.100\n",
      "  libavformat    61.  7.100 / 61.  7.100\n",
      "  libavdevice    61.  3.100 / 61.  3.100\n",
      "  libavfilter    10.  4.100 / 10.  4.100\n",
      "  libswscale      8.  3.100 /  8.  3.100\n",
      "  libswresample   5.  3.100 /  5.  3.100\n",
      "  libpostproc    58.  3.100 / 58.  3.100\n",
      "Input #0, mov,mp4,m4a,3gp,3g2,mj2, from './.cache/files/Villains Milk.mp4':\n",
      "  Metadata:\n",
      "    major_brand     : isom\n",
      "    minor_version   : 512\n",
      "    compatible_brands: isomiso2avc1mp41\n",
      "    encoder         : Lavf59.27.100\n",
      "  Duration: 00:10:16.72, start: 0.000000, bitrate: 529 kb/s\n",
      "  Stream #0:0[0x1](und): Video: h264 (Main) (avc1 / 0x31637661), yuv420p(tv, bt709, progressive), 1280x720 [SAR 1:1 DAR 16:9], 395 kb/s, 24 fps, 24 tbr, 12288 tbn (default)\n",
      "      Metadata:\n",
      "        handler_name    : ISO Media file produced by Google Inc.\n",
      "        vendor_id       : [0][0][0][0]\n",
      "  Stream #0:1[0x2](eng): Audio: aac (LC) (mp4a / 0x6134706D), 44100 Hz, stereo, fltp, 127 kb/s (default)\n",
      "      Metadata:\n",
      "        handler_name    : ISO Media file produced by Google Inc.\n",
      "        vendor_id       : [0][0][0][0]\n",
      "Stream mapping:\n",
      "  Stream #0:1 -> #0:0 (aac (native) -> mp3 (libmp3lame))\n",
      "Press [q] to stop, [?] for help\n",
      "Output #0, mp3, to './.cache/files/Villains Milk.mp3':\n",
      "  Metadata:\n",
      "    major_brand     : isom\n",
      "    minor_version   : 512\n",
      "    compatible_brands: isomiso2avc1mp41\n",
      "    TSSE            : Lavf61.7.100\n",
      "  Stream #0:0(eng): Audio: mp3, 44100 Hz, stereo, fltp (default)\n",
      "      Metadata:\n",
      "        handler_name    : ISO Media file produced by Google Inc.\n",
      "        vendor_id       : [0][0][0][0]\n",
      "        encoder         : Lavc61.19.100 libmp3lame\n",
      "[out#0/mp3 @ 0x13af11580] video:0KiB audio:9637KiB subtitle:0KiB other streams:0KiB global headers:0KiB muxing overhead: 0.003597%\n",
      "size=    9637KiB time=00:10:16.72 bitrate= 128.0kbits/s speed=  98x    \n"
     ]
    }
   ],
   "source": [
    "import subprocess\n",
    "\n",
    "def extract_audio_from_video(video_path: str, audio_path: str):\n",
    "    subprocess.run(\n",
    "        [\"ffmpeg\", \"-i\", video_path, \"-vn\", audio_path]\n",
    "    )\n",
    "\n",
    "extract_audio_from_video(f\"./.cache/files/{name}.mp4\", f\"./.cache/files/{name}.mp3\")"
   ]
  },
  {
   "cell_type": "code",
   "execution_count": 5,
   "metadata": {},
   "outputs": [],
   "source": [
    "import os\n",
    "from pydub import AudioSegment\n",
    "\n",
    "ten_minutes = 10 * 60 * 1000\n",
    "def split_audio(audio_path: str, chunk_path: str = \"./.cache/files/chunks\", chunk_duration: int = ten_minutes):\n",
    "    track = AudioSegment.from_mp3(audio_path)\n",
    "    name = os.path.basename(audio_path).replace(\".mp3\", \"\")\n",
    "    for i, chunk in enumerate(track[::chunk_duration]):\n",
    "        path = f\"{chunk_path}/{name}_{i}.mp3\"\n",
    "        os.makedirs(os.path.dirname(path), exist_ok=True)\n",
    "        chunk.export(path, format=\"mp3\")\n",
    "\n",
    "split_audio(f\"./.cache/files/{name}.mp3\")\n"
   ]
  },
  {
   "cell_type": "code",
   "execution_count": 8,
   "metadata": {},
   "outputs": [],
   "source": [
    "import openai\n",
    "import glob\n",
    "\n",
    "transcript = openai.audio.transcriptions.create(\n",
    "    model=\"whisper-1\",\n",
    "    file=open(\"./.cache/files/chunks/Villains Milk_0.mp3\", \"rb\")\n",
    ")\n",
    "\n",
    "def transcribe_audio_chunks(chunk_folder: str, transcript_path: str):\n",
    "    for chunk in glob.glob(f\"{chunk_folder}/*.mp3\"):\n",
    "        with open(chunk, \"rb\") as audio_chunk, open(transcript_path, \"a\") as text_file:\n",
    "            transcript = openai.audio.transcriptions.create(\n",
    "                model=\"whisper-1\",\n",
    "                file=audio_chunk\n",
    "            )\n",
    "            text_file.write(transcript.text)\n",
    "\n",
    "transcribe_audio_chunks(\"./.cache/files/chunks\", \"./.cache/files/transcript.txt\")"
   ]
  }
 ],
 "metadata": {
  "kernelspec": {
   "display_name": "env",
   "language": "python",
   "name": "python3"
  },
  "language_info": {
   "codemirror_mode": {
    "name": "ipython",
    "version": 3
   },
   "file_extension": ".py",
   "mimetype": "text/x-python",
   "name": "python",
   "nbconvert_exporter": "python",
   "pygments_lexer": "ipython3",
   "version": "3.11.11"
  }
 },
 "nbformat": 4,
 "nbformat_minor": 2
}
